<?xml version="1.0" standalone="no"?>
<!DOCTYPE svg PUBLIC "-//W3C//DTD SVG 20010904//EN"
 "http://www.w3.org/TR/2001/REC-SVG-20010904/DTD/svg10.dtd">
<svg version="1.0" xmlns="http://www.w3.org/2000/svg"
 width="2880.000000pt" height="1756.000000pt" viewBox="0 0 2880.000000 1756.000000"
 preserveAspectRatio="xMidYMid meet">

<g transform="translate(0.000000,1756.000000) scale(0.100000,-0.100000)"
fill="#000000" stroke="none">
<path d="M14167 15430 c-938 -37 -1792 -243 -2620 -630 -211 -99 -459 -231
-497 -265 -14 -12 -65 -46 -115 -76 -239 -142 -572 -379 -800 -569 -517 -430
-937 -901 -1322 -1481 -83 -124 -94 -136 -132 -147 -59 -18 -75 -48 -67 -123
l7 -60 -81 -149 c-472 -868 -756 -1886 -796 -2853 -7 -179 10 -693 31 -927 63
-687 237 -1373 510 -2015 108 -253 310 -649 360 -705 12 -14 46 -65 75 -115
74 -124 257 -397 361 -535 452 -605 1031 -1153 1653 -1564 227 -149 337 -210
751 -415 810 -401 1693 -631 2598 -677 122 -6 139 -9 148 -26 14 -26 70 -49
100 -41 13 3 40 20 60 38 l35 32 220 6 c809 24 1640 208 2399 532 252 108 648
310 705 360 14 12 72 50 130 85 733 441 1443 1099 1938 1794 155 217 328 488
352 551 6 16 51 103 100 194 464 861 743 1865 786 2826 11 263 -17 858 -56
1160 -98 764 -321 1488 -674 2193 -45 90 -62 133 -55 143 30 48 -14 133 -76
145 -42 8 -43 9 -145 174 -380 616 -855 1163 -1415 1630 -280 233 -762 566
-915 632 -25 11 -115 57 -200 103 -883 478 -1951 764 -2910 779 -129 3 -329 1
-443 -4z m798 -405 c326 -33 656 -89 855 -144 19 -6 51 -13 70 -16 122 -21
349 -96 485 -160 28 -14 70 -31 93 -39 56 -20 665 -323 694 -345 13 -10 41
-27 63 -37 29 -13 35 -20 22 -22 -10 -2 -28 3 -40 11 -12 7 -35 17 -51 21 -26
7 -28 6 -16 -9 7 -9 27 -23 43 -32 41 -21 83 -61 73 -70 -13 -14 -100 -10
-124 5 -12 8 -25 12 -28 9 -7 -6 59 -57 75 -57 6 0 37 -17 69 -39 31 -21 67
-42 80 -45 12 -4 22 -11 22 -15 0 -5 13 -14 30 -21 16 -7 28 -16 25 -20 -3 -4
8 -13 23 -19 16 -7 29 -18 29 -26 0 -9 -40 7 -116 48 -144 77 -311 158 -333
162 -9 2 -37 15 -63 29 -25 14 -56 26 -69 26 -13 0 -34 9 -47 21 -46 40 -134
73 -123 46 5 -13 105 -67 125 -67 6 0 43 -19 82 -42 40 -23 98 -54 129 -69 31
-15 66 -37 78 -49 12 -12 40 -29 63 -39 23 -10 48 -25 55 -33 6 -8 30 -23 52
-33 27 -12 39 -23 36 -32 -3 -8 -1 -11 4 -8 6 3 10 1 10 -5 0 -6 4 -9 9 -6 15
10 72 -20 84 -44 7 -13 27 -31 45 -41 50 -26 75 -51 61 -60 -7 -4 -19 -1 -26
7 -8 8 -19 12 -24 8 -11 -6 -41 15 -35 25 2 3 -11 7 -30 8 -19 1 -46 10 -61
21 -36 24 -186 97 -195 94 -5 -1 -8 2 -8 7 0 9 -84 52 -129 66 -31 10 -18 -13
15 -25 13 -5 24 -15 23 -22 0 -10 -2 -10 -6 0 -2 6 -10 12 -16 12 -21 0 -137
53 -137 62 0 5 -4 6 -10 3 -5 -3 -10 -1 -10 5 0 6 -4 9 -9 5 -5 -3 -76 27
-158 66 -326 157 -435 207 -502 230 -30 11 -64 25 -75 33 -12 7 -46 22 -76 33
-30 12 -93 37 -140 58 -47 20 -96 39 -109 41 -14 3 -45 13 -70 23 -44 17 -83
31 -146 53 -16 6 -38 15 -49 20 -36 18 -121 36 -135 29 -21 -13 4 -25 143 -72
33 -10 91 -34 130 -53 84 -40 176 -76 195 -76 8 0 22 -6 30 -14 9 -8 79 -37
156 -66 77 -28 151 -59 165 -69 14 -9 52 -27 85 -40 33 -12 66 -28 75 -35 8
-7 59 -30 113 -51 53 -21 110 -49 125 -61 15 -13 34 -24 42 -24 8 0 33 -11 56
-23 22 -12 64 -35 94 -51 29 -15 60 -34 68 -42 7 -8 19 -14 25 -14 18 -1 63
-38 55 -46 -4 -3 -23 3 -43 15 -20 11 -42 21 -48 21 -20 0 -116 48 -139 69
-12 12 -34 21 -48 21 -15 0 -45 12 -66 27 -45 30 -138 73 -160 73 -15 0 -59
25 -82 47 -7 7 -29 15 -50 19 -20 4 -59 19 -87 34 -27 14 -77 37 -110 49 -33
12 -81 32 -107 43 -25 11 -55 21 -65 23 -28 2 -67 21 -82 38 -7 9 -19 13 -27
10 -8 -3 -24 1 -37 10 -31 20 -87 32 -87 17 0 -6 4 -8 10 -5 5 3 25 -1 42 -11
63 -32 69 -35 78 -29 6 4 10 2 10 -3 0 -10 68 -41 104 -48 11 -2 29 -13 41
-24 13 -12 31 -19 45 -17 25 4 91 -26 124 -55 11 -10 28 -18 38 -18 12 0 16
-4 12 -12 -4 -6 -3 -8 3 -5 5 4 28 -6 49 -22 21 -16 55 -32 74 -36 19 -4 44
-14 55 -21 11 -8 27 -14 37 -14 10 0 18 -4 18 -9 0 -5 15 -17 33 -27 87 -46
123 -63 135 -64 6 0 12 -4 12 -9 0 -5 11 -12 25 -15 14 -4 25 -10 25 -14 0 -5
23 -19 50 -32 53 -25 55 -27 41 -48 -7 -12 -12 -12 -30 -1 -11 8 -21 17 -21
21 0 4 -6 5 -14 2 -7 -3 -20 2 -29 10 -8 9 -44 26 -78 39 -35 13 -84 33 -109
44 -65 30 -90 36 -90 24 0 -6 5 -11 10 -11 18 0 25 -3 65 -28 22 -14 63 -36
92 -48 29 -13 53 -28 53 -34 0 -5 27 -23 59 -40 52 -26 75 -40 154 -93 11 -6
29 -20 40 -29 36 -29 41 -32 91 -58 27 -13 67 -38 90 -55 22 -17 64 -45 93
-61 40 -23 50 -33 43 -44 -6 -8 -10 -10 -10 -4 0 7 -18 21 -39 31 l-39 19 11
-23 c5 -13 16 -23 24 -23 7 0 16 -7 19 -15 4 -8 10 -12 15 -9 5 3 9 0 9 -5 0
-6 7 -11 15 -11 8 0 15 -4 15 -10 0 -5 5 -10 10 -10 6 0 19 -8 30 -17 11 -10
29 -26 40 -35 11 -10 20 -15 20 -11 0 4 13 -6 29 -21 16 -15 33 -28 38 -28 8
0 63 -41 91 -68 9 -8 19 -15 23 -15 4 0 11 -3 15 -7 4 -5 13 -8 19 -8 7 0 39
-25 71 -55 l58 -56 -100 4 c-73 2 -107 8 -124 20 -14 9 -37 17 -52 17 -16 0
-28 5 -28 10 0 6 -5 10 -11 10 -6 0 -23 8 -37 19 -47 33 -105 64 -242 129 -19
9 -51 28 -70 42 -19 14 -57 37 -85 50 -27 13 -93 51 -145 84 -1004 626 -1733
971 -2529 1197 -196 55 -507 121 -685 144 -158 20 -455 38 -538 32 -38 -2 -68
0 -68 4 0 5 3 9 6 9 3 0 81 15 172 34 260 54 648 103 942 120 147 8 732 -4
875 -19z m2325 -775 c0 -5 -4 -10 -10 -10 -5 0 -10 5 -10 10 0 6 5 10 10 10 6
0 10 -4 10 -10z m60 -42 c0 -13 -17 -9 -34 8 -22 22 -20 25 9 12 14 -6 25 -15
25 -20z m66 -34 c18 -14 18 -14 -6 -3 -31 14 -36 19 -24 19 6 0 19 -7 30 -16z
m-126 -4 c0 -5 7 -7 15 -4 11 5 13 2 9 -9 -3 -9 -12 -13 -19 -11 -16 7 -28 34
-15 34 6 0 10 -4 10 -10z m204 -216 c8 -3 12 -12 10 -19 -7 -17 -34 -8 -34 11
0 16 2 16 24 8z m82 -58 c10 -8 16 -17 12 -21 -7 -7 -48 16 -48 27 0 12 14 9
36 -6z m-735 -31 c5 4 6 -2 2 -11 -4 -11 -8 -13 -11 -6 -2 7 -8 10 -13 6 -11
-6 -12 9 -2 20 4 4 9 2 11 -3 2 -6 8 -9 13 -6z m781 -132 c10 -9 17 -26 17
-37 -1 -18 -2 -18 -6 -3 -3 11 -11 16 -19 13 -9 -3 -14 1 -14 12 0 15 -2 15
-10 2 -11 -17 -13 -10 -4 14 8 20 13 20 36 -1z m-312 -269 c0 -2 -7 -4 -15 -4
-8 0 -15 4 -15 10 0 5 7 7 15 4 8 -4 15 -8 15 -10z m445 -446 c5 -4 22 -17 38
-29 15 -11 27 -25 27 -30 0 -15 -36 -1 -85 32 -24 16 -51 29 -61 30 -14 1 -12
3 6 8 26 8 58 3 75 -11z m-5034 -1811 c-10 -9 -11 -8 -5 6 3 10 9 15 12 12 3
-3 0 -11 -7 -18z m2178 -331 c-3 -3 -11 5 -18 17 -13 21 -12 21 5 5 10 -10 16
-20 13 -22z m-319 -392 c36 -3 67 -7 71 -9 3 -2 28 -7 55 -11 27 -3 59 -10 71
-15 13 -5 23 -7 23 -4 0 2 16 -3 35 -11 19 -8 35 -11 35 -7 0 4 5 2 12 -5 7
-7 20 -12 29 -12 10 0 30 -5 46 -12 15 -6 30 -12 33 -13 3 -1 16 -6 30 -12 41
-18 65 -26 72 -25 8 2 27 -26 120 -178 l57 -95 -32 -6 c-49 -9 -1067 -10
-1067 0 0 4 20 42 44 84 24 43 70 138 102 212 l58 135 71 -5 c38 -3 99 -8 135
-11z m-300 3 c0 -30 -104 -258 -157 -345 l-20 -33 -7 62 c-6 59 -9 298 -3 300
1 0 22 3 47 6 25 3 47 7 49 9 5 5 91 5 91 1z m-275 -49 c3 -11 22 -235 28
-348 2 -24 0 -25 -63 -24 -36 1 -150 2 -253 3 l-188 1 32 58 c106 188 155 248
211 256 3 1 10 4 14 9 4 4 18 7 31 7 13 0 23 5 23 12 0 6 3 9 6 5 3 -3 23 1
45 8 21 8 39 12 39 9 0 -3 8 0 18 5 24 14 52 13 57 -1z m-455 -163 c0 -15 -88
-172 -390 -695 -183 -316 -356 -615 -384 -665 -29 -49 -69 -115 -90 -145 l-38
-55 6 130 c3 72 8 141 11 155 3 14 7 39 10 55 4 35 10 59 23 108 6 20 8 37 6
39 -2 3 6 29 17 59 11 30 22 65 25 79 3 13 9 29 13 35 4 5 14 26 21 45 50 135
171 336 272 453 102 117 307 307 332 307 4 0 12 5 19 11 18 16 131 88 140 88
4 1 7 -1 7 -4z m1869 -126 c84 -58 335 -303 324 -316 -1 -1 9 -15 22 -30 27
-30 108 -162 160 -258 57 -105 110 -256 148 -420 22 -92 26 -123 32 -230 3
-49 8 -96 10 -102 2 -7 3 -13 1 -13 -4 0 -98 143 -124 190 -11 19 -159 276
-329 570 -309 535 -403 701 -403 714 0 4 19 -7 43 -23 23 -17 75 -54 116 -82z
m-1409 -177 c0 -4 -73 -104 -161 -222 -308 -410 -427 -614 -488 -840 -29 -103
-70 -356 -78 -467 -3 -51 -9 -90 -14 -88 -11 8 -359 619 -359 632 0 7 126 229
279 495 l279 483 93 6 c152 9 449 10 449 1z m1321 -10 c17 -18 559 -966 559
-977 0 -11 -197 -364 -247 -444 l-16 -24 -12 24 c-7 13 -61 137 -120 274 -186
434 -296 624 -460 794 -89 93 -291 262 -385 324 -28 18 -50 34 -50 37 0 8 724
-1 731 -8z m-651 -482 c356 -627 412 -726 457 -806 l40 -71 -132 28 c-159 33
-220 49 -348 88 -133 41 -137 44 -137 91 0 22 -3 40 -7 40 -5 0 -15 13 -25 29
-15 28 -101 76 -118 66 -4 -2 -10 16 -14 41 -10 79 -75 323 -127 482 -28 85
-48 161 -44 170 3 9 45 83 93 164 66 113 89 145 98 135 6 -6 125 -212 264
-457z m-97 408 c227 -152 443 -354 545 -508 79 -118 206 -372 318 -635 112
-262 107 -238 48 -220 -27 9 -86 25 -132 37 -75 19 -86 25 -107 57 -22 35
-223 385 -313 546 -25 44 -130 231 -235 415 -104 184 -192 338 -194 343 -9 15
10 6 70 -35z m-485 -123 l33 -135 -139 -238 c-77 -130 -148 -252 -158 -269
-68 -117 -292 -495 -403 -683 l-92 -155 6 90 c8 117 40 339 64 440 41 169 115
334 232 515 64 99 410 570 419 570 3 0 20 -61 38 -135z m-5026 -153 c-5 -24
-11 -57 -11 -67 -3 -24 -21 23 -21 53 0 27 4 33 18 30 9 -2 16 -10 14 -16z
m5212 -467 c19 -71 37 -150 41 -175 6 -44 5 -45 -29 -64 -20 -11 -36 -26 -36
-35 0 -9 -7 -24 -15 -34 -12 -17 -13 -106 -1 -126 3 -4 -47 -56 -111 -116 -64
-60 -176 -176 -250 -257 l-135 -148 -179 0 c-98 0 -180 4 -183 8 -5 8 115 216
539 937 45 77 118 200 161 274 l78 133 43 -133 c24 -74 59 -192 77 -264z
m-5280 283 c-3 -4 0 -8 6 -8 6 0 25 -29 41 -64 26 -56 29 -72 25 -126 -5 -53
-3 -60 9 -50 20 17 20 -4 -1 -24 -10 -10 -11 -16 -4 -16 7 0 10 -7 7 -15 -4
-8 -3 -17 2 -19 4 -3 9 -58 9 -123 2 -116 10 -333 12 -343 1 -3 0 -97 -2 -210
-6 -402 -1 -1078 11 -1255 70 -1075 297 -1969 651 -2568 52 -90 55 -97 41 -97
-9 0 -153 162 -262 295 -501 611 -938 1430 -1139 2135 -22 80 -52 181 -65 225
-78 257 -127 703 -135 1240 -3 156 -3 155 11 155 7 0 9 -12 6 -32 -7 -43 12
-137 24 -117 4 8 6 28 5 43 -4 35 11 96 24 96 6 0 10 -6 10 -13 0 -8 9 -22 20
-32 11 -10 18 -20 15 -23 -3 -3 -1 -10 4 -16 5 -6 11 -28 14 -49 5 -40 16 -61
18 -36 1 8 0 19 -1 24 -2 10 0 159 4 263 1 28 -1 57 -5 64 -8 13 7 48 20 48 8
0 13 -48 26 -250 2 -30 6 -80 9 -110 3 -30 8 -86 11 -125 3 -38 9 -86 14 -105
4 -20 4 -44 0 -55 -4 -11 -5 -30 -3 -42 12 -67 15 -76 26 -65 12 12 13 114 1
139 -5 10 -8 149 -6 308 3 325 7 402 26 445 3 8 8 32 9 52 2 29 6 35 16 29 14
-9 22 -86 23 -228 1 -40 4 -73 8 -73 5 0 7 -43 11 -207 0 -18 5 -33 10 -33 6
0 10 5 10 10 0 6 5 10 10 10 16 0 12 -40 -5 -46 -8 -4 -13 -17 -12 -34 2 -28
17 -32 17 -4 0 8 5 14 11 14 7 0 10 -17 8 -42 -3 -42 7 -162 18 -223 3 -16 5
-45 4 -64 -1 -19 3 -66 8 -105 5 -39 13 -114 16 -166 3 -52 8 -104 10 -115 6
-26 12 -77 19 -145 18 -180 17 -173 41 -330 9 -52 24 -142 35 -200 11 -58 26
-141 33 -185 10 -61 17 -81 30 -83 15 -3 17 3 14 41 -2 24 -7 48 -9 53 -3 5
-9 43 -12 84 -4 41 -16 136 -26 210 -66 455 -87 625 -82 660 1 8 -3 45 -8 82
-11 75 -18 179 -25 406 -4 135 -3 152 11 152 13 0 15 -7 11 -37 -4 -20 -2 -42
2 -47 10 -12 22 -157 23 -276 1 -41 5 -79 9 -85 6 -9 15 -84 23 -205 5 -81 28
-275 32 -279 2 -3 10 1 17 8 7 7 8 14 2 19 -6 4 -11 61 -11 127 -1 66 -4 165
-7 219 -2 55 -1 113 4 130 6 20 5 34 -3 44 -8 9 -13 51 -14 103 -1 80 1 89 17
89 22 0 27 -19 34 -115 8 -128 17 -205 24 -205 4 0 7 36 8 79 1 44 4 84 7 90
4 5 2 12 -4 16 -13 8 -13 62 0 70 7 4 7 11 2 18 -9 12 -8 76 2 167 3 25 8 140
11 255 9 285 10 314 18 321 7 8 12 -62 9 -133 -1 -30 3 -43 12 -43 17 0 22 26
21 122 0 43 3 78 6 78 3 0 6 26 5 58 -1 31 3 75 9 97 6 22 11 79 9 128 -1 48
2 90 7 93 5 3 9 15 9 28 0 38 21 90 31 75 4 -7 5 -17 3 -21z m-481 -373 c4 -8
2 -17 -4 -20 -5 -4 -7 -11 -4 -16 4 -5 4 -9 0 -9 -8 0 -24 44 -18 53 7 12 20
8 26 -8z m-133 -67 c0 -7 -4 -19 -9 -26 -6 -10 -10 -7 -13 12 -4 18 -1 26 8
26 8 0 14 -6 14 -12z m-10 -62 c0 -3 -4 -8 -10 -11 -5 -3 -10 -1 -10 4 0 6 5
11 10 11 6 0 10 -2 10 -4z m10 -98 c0 -28 -4 -38 -16 -38 -14 0 -15 2 -3 17 8
9 9 14 2 10 -15 -9 -22 32 -9 55 14 24 26 4 26 -44z m4676 -308 c110 -190 206
-357 214 -372 8 -15 39 -67 68 -116 28 -49 52 -92 52 -96 0 -3 -36 -6 -79 -6
-87 0 -249 -14 -354 -31 -51 -8 -71 -8 -82 1 -11 9 -86 149 -91 170 0 3 -4 14
-9 25 -4 11 -14 36 -22 55 -44 108 -93 297 -96 368 -2 42 7 63 88 209 69 124
93 159 101 150 7 -7 101 -167 210 -357z m2969 222 c52 -95 71 -140 69 -160 -3
-15 -6 -40 -9 -57 -3 -16 -7 -47 -10 -68 -8 -55 -34 -150 -43 -159 -5 -5 -68
21 -141 57 -72 36 -147 72 -166 80 -19 7 -35 17 -35 21 0 16 246 423 254 421
5 -2 42 -63 81 -135z m-7814 -39 c8 -57 6 -113 -4 -110 -7 3 -11 11 -9 18 6
25 6 44 -1 72 -5 16 -3 27 3 27 5 0 10 -3 11 -7z m6400 -38 c108 -37 273 -80
444 -115 83 -17 155 -37 162 -43 19 -19 185 -318 180 -323 -3 -3 -352 -2 -776
2 l-770 7 62 71 c95 108 234 251 310 319 l68 60 32 -15 c35 -16 126 -16 136 0
3 5 21 17 39 26 17 9 32 21 32 26 0 13 -5 14 81 -15z m-6041 5 c0 -5 -5 -10
-11 -10 -5 0 -7 5 -4 10 3 6 8 10 11 10 2 0 4 -4 4 -10z m-303 -30 c-5 -31
-13 -32 -12 -1 0 16 3 27 7 25 4 -3 6 -14 5 -24z m303 -41 c0 -6 -4 -7 -10 -4
-5 3 -10 11 -10 16 0 6 5 7 10 4 6 -3 10 -11 10 -16z m195 -229 c-3 -5 0 -10
7 -10 9 0 9 -3 -2 -10 -10 -6 -11 -10 -2 -10 6 0 12 -4 12 -8 0 -5 -6 -9 -14
-9 -9 0 -14 10 -14 29 1 15 5 28 10 28 5 0 6 -4 3 -10z m7158 -118 c86 -51 90
-62 54 -129 -10 -18 -18 -36 -18 -40 -1 -5 -6 -21 -13 -37 l-12 -30 -56 70
c-50 62 -104 141 -167 246 l-22 37 78 -35 c43 -20 113 -57 156 -82z m-212 -62
c20 -30 65 -93 100 -140 36 -47 68 -90 72 -97 7 -10 -9 -60 -23 -73 -3 -3 -31
-43 -61 -90 -70 -106 -87 -125 -232 -270 -107 -107 -123 -120 -168 -129 -47
-10 -329 -16 -329 -7 0 4 209 371 342 601 39 66 76 127 84 136 8 8 14 19 14
24 0 8 85 159 103 183 8 10 17 1 36 -35 15 -26 43 -73 62 -103z m-6921 101 c0
-11 -5 -23 -11 -27 -14 -8 -29 14 -22 33 8 20 33 16 33 -6z m6460 -179 l85 -7
-87 -43 c-176 -86 -409 -170 -550 -197 -117 -23 -309 -29 -473 -16 -121 9
-501 52 -604 67 l-34 5 99 100 99 99 690 -1 c379 -1 728 -4 775 -7z m62 -124
c-10 -18 -95 -162 -187 -321 l-168 -287 -571 2 -571 3 -133 229 c-73 125 -131
231 -128 233 5 5 109 -6 456 -49 113 -14 231 -20 375 -21 233 -1 328 11 497
63 105 33 339 124 403 158 22 12 41 21 43 22 2 0 -5 -15 -16 -32z m-2007 -184
c-100 -69 -183 -120 -227 -138 -31 -14 -35 -13 -51 7 -49 60 -96 131 -92 137
14 22 188 47 340 49 l109 1 -79 -56z m270 -184 c54 -96 107 -190 118 -208 l19
-33 -176 1 c-97 1 -190 5 -205 10 -32 9 -55 27 -155 124 -58 56 -68 70 -56 78
8 6 87 58 175 117 115 77 163 104 171 97 6 -6 55 -90 109 -186z m1643 -319
l73 -6 -38 -20 c-21 -11 -59 -33 -84 -48 -26 -16 -53 -30 -60 -31 -8 -2 -25
-8 -39 -14 -117 -50 -178 -73 -203 -78 -17 -3 -33 -7 -37 -9 -9 -5 -47 -14
-170 -37 -126 -24 -403 -29 -520 -9 -41 7 -84 14 -95 15 -42 6 -231 58 -262
71 -17 8 -36 15 -42 15 -7 0 -76 33 -153 73 l-142 72 75 6 c101 7 1606 8 1697
0z m5172 -347 c0 -19 -120 -358 -176 -496 -315 -781 -764 -1465 -1361 -2074
-121 -124 -312 -294 -329 -294 -3 0 -25 -15 -48 -34 -23 -19 -76 -57 -119 -85
-42 -28 -77 -55 -77 -60 0 -5 -15 -14 -32 -22 -18 -7 -35 -16 -38 -20 -9 -12
-231 -158 -251 -164 -10 -4 -19 -10 -19 -14 0 -5 -13 -14 -30 -21 -16 -7 -30
-16 -30 -21 0 -5 -5 -9 -11 -9 -6 0 -26 -12 -45 -26 -19 -15 -34 -23 -34 -19
0 7 -71 -33 -80 -45 -11 -15 -49 -30 -54 -21 -5 7 85 71 102 71 13 1 55 40 49
46 -5 5 -124 -43 -189 -77 -12 -6 -18 -5 -18 1 0 6 7 13 15 16 8 4 12 11 8 17
-4 6 2 8 15 5 13 -4 19 -2 16 6 -6 17 21 68 31 58 5 -4 5 -2 1 5 -4 7 4 18 21
27 25 13 26 15 7 16 -12 0 -33 -9 -47 -20 -14 -11 -30 -20 -35 -20 -6 0 -23
-10 -39 -23 -15 -12 -53 -34 -83 -47 -30 -14 -58 -29 -62 -35 -5 -7 -8 -7 -8
0 0 7 -3 7 -8 0 -4 -5 -21 -15 -38 -21 -53 -19 -37 12 23 42 29 15 53 30 53
34 0 3 16 14 36 23 36 18 144 94 155 110 3 5 10 8 14 7 7 -3 93 59 169 120 24
19 69 51 101 70 61 37 91 72 55 63 -11 -3 -20 -9 -20 -13 0 -5 -8 -11 -18 -14
-10 -4 -27 -14 -38 -24 -35 -30 -84 -63 -122 -80 -20 -10 -62 -33 -92 -53 -30
-20 -100 -59 -155 -88 -54 -29 -105 -57 -112 -62 -7 -6 -18 -7 -24 -3 -8 4 -9
3 -5 -4 16 -27 -239 -121 -262 -97 -4 4 -1 10 6 12 7 3 18 10 25 17 6 7 19 15
27 19 8 4 33 20 56 35 22 15 67 45 100 66 32 22 65 46 72 53 7 7 18 13 23 13
5 0 9 5 9 11 0 6 -9 9 -20 6 -27 -7 -25 2 3 12 16 6 23 5 27 -5 5 -14 33 1 85
43 6 5 21 17 35 27 24 18 24 18 3 13 -13 -3 -23 -3 -23 0 0 6 29 32 57 50 26
18 80 56 142 100 29 21 61 43 70 48 9 6 50 34 91 63 41 29 118 83 170 119 52
37 106 78 120 90 14 13 28 23 32 23 4 0 28 18 53 40 25 22 50 40 55 40 7 0
125 93 140 111 3 3 12 8 20 11 8 3 89 70 180 148 91 78 177 152 193 165 15 13
27 28 27 34 0 23 -30 9 -95 -45 -38 -30 -89 -69 -114 -87 -25 -17 -77 -57
-114 -89 -37 -32 -85 -69 -106 -82 -21 -13 -60 -43 -87 -66 -118 -101 -175
-144 -206 -158 -15 -6 -44 -26 -65 -45 -21 -19 -51 -41 -68 -50 -16 -8 -41
-25 -55 -37 -14 -12 -36 -30 -50 -39 -14 -8 -44 -30 -68 -48 -24 -18 -49 -33
-56 -33 -7 0 -21 -9 -31 -20 -11 -12 -41 -32 -69 -46 -27 -14 -71 -41 -98 -60
-26 -20 -54 -37 -61 -38 -6 -1 -27 -10 -44 -19 -18 -10 -33 -13 -33 -8 0 5 15
18 33 30 17 11 43 30 57 43 33 31 102 78 116 78 6 0 24 12 40 26 16 14 45 34
66 43 20 9 53 32 75 49 104 88 136 112 151 112 9 0 36 20 60 44 23 23 59 52
79 62 21 10 57 37 81 59 24 22 57 48 73 58 16 11 29 26 28 35 0 11 -2 12 -6 5
-2 -7 -15 -13 -29 -13 -17 0 -25 -7 -30 -25 -4 -15 -16 -28 -30 -31 -13 -3
-21 -10 -18 -15 3 -5 -2 -9 -11 -9 -8 0 -18 -6 -21 -14 -3 -8 -12 -12 -20 -9
-7 3 -17 -2 -20 -11 -3 -9 -10 -13 -15 -10 -5 3 -9 0 -9 -5 0 -6 -6 -11 -13
-11 -15 0 -130 -78 -135 -91 -2 -5 -8 -9 -13 -9 -10 0 -90 -50 -99 -61 -3 -4
-23 -14 -45 -23 -21 -9 -42 -20 -45 -24 -15 -21 -90 -69 -125 -81 -22 -7 -48
-22 -58 -33 -15 -15 -22 -17 -33 -7 -12 10 -13 9 -8 -5 3 -9 1 -16 -5 -16 -30
0 7 52 39 55 3 0 16 11 31 25 45 44 84 74 96 75 10 0 73 48 109 83 7 6 17 12
23 12 14 0 23 18 12 24 -5 3 -32 -10 -60 -29 -28 -19 -55 -35 -61 -35 -5 0
-10 -4 -10 -10 0 -5 -6 -10 -13 -10 -7 0 -20 -9 -30 -20 -15 -18 -36 -25 -59
-21 -5 0 -8 -6 -8 -14 0 -8 -4 -16 -10 -16 -5 -1 -14 -3 -20 -4 -5 -1 -14 -3
-18 -4 -5 0 -19 -10 -32 -21 -13 -11 -35 -23 -48 -27 -13 -3 -56 -23 -95 -44
-40 -21 -108 -56 -152 -78 -44 -23 -122 -63 -174 -91 -96 -51 -123 -62 -83
-34 12 8 20 20 16 25 -3 5 -2 9 3 8 4 -1 22 3 38 10 17 7 30 11 30 9 0 -2 11
7 25 20 13 12 29 22 36 22 6 0 14 7 18 15 3 8 1 15 -4 15 -6 0 -10 -5 -10 -11
0 -5 -4 -7 -10 -4 -5 3 -10 1 -10 -5 0 -6 -5 -8 -12 -4 -7 4 -8 3 -4 -4 5 -8
-1 -12 -17 -12 -13 0 -41 -12 -63 -26 -21 -14 -48 -28 -61 -30 -20 -4 -78 -28
-260 -110 -29 -13 -71 -35 -93 -49 -22 -14 -40 -23 -40 -20 0 2 -20 -4 -45
-15 -38 -16 -45 -17 -45 -4 0 8 6 17 13 20 8 3 14 11 14 19 0 20 64 112 83
120 32 12 60 30 60 37 0 5 0 11 -1 14 0 3 30 21 66 40 37 18 82 44 100 58 19
15 39 26 45 26 6 0 13 7 16 15 4 8 11 15 16 15 5 0 33 15 61 34 29 18 81 51
117 72 36 21 79 48 95 60 17 12 53 33 80 47 129 64 553 302 799 449 804 482
1502 1066 1955 1637 93 118 250 351 307 458 34 63 54 88 54 67z m-2965 -3040
c-9 -9 -19 -13 -23 -10 -3 4 0 11 8 16 24 15 33 11 15 -6z m130 -34 c3 -5 1
-10 -4 -10 -6 0 -11 5 -11 10 0 6 2 10 4 10 3 0 8 -4 11 -10z m-25 -9 c0 -12
-20 -25 -27 -18 -7 7 6 27 18 27 5 0 9 -4 9 -9z m-1135 -114 c-4 -8 -16 -17
-28 -20 -12 -2 -30 -8 -39 -12 -13 -5 -18 -3 -18 8 0 9 17 21 43 30 48 16 50
16 42 -6z m1205 -207 c0 -3 -13 -11 -30 -17 -36 -13 -38 -7 -8 24 16 17 24 20
30 11 4 -7 8 -15 8 -18z m-516 -35 c-11 -8 -30 -14 -44 -14 -25 0 -25 0 5 16
17 10 33 16 38 15 4 -1 7 4 8 11 0 9 2 9 6 -1 3 -7 -3 -20 -13 -27z m246 -1
c0 -12 -6 -15 -24 -10 -15 4 -32 -1 -47 -13 -26 -20 -78 -48 -67 -36 15 16
113 75 125 75 7 0 13 -7 13 -16z m300 -4 c0 -5 -5 -10 -11 -10 -5 0 -7 5 -4
10 3 6 8 10 11 10 2 0 4 -4 4 -10z m-54 -35 c-11 -8 -22 -12 -25 -9 -6 6 19
24 34 24 6 -1 1 -7 -9 -15z"/>
<path d="M16030 14586 c0 -2 7 -7 16 -10 8 -3 12 -2 9 4 -6 10 -25 14 -25 6z"/>
<path d="M16490 14386 c0 -2 19 -14 43 -25 l42 -21 -30 25 c-26 22 -55 33 -55
21z"/>
<path d="M17000 14362 c0 -5 12 -15 28 -22 15 -8 31 -16 36 -19 5 -2 6 1 2 8
-10 15 -66 44 -66 33z"/>
<path d="M16290 14066 c0 -9 30 -14 35 -6 4 6 -3 10 -14 10 -12 0 -21 -2 -21
-4z"/>
<path d="M16342 14051 c4 -13 18 -16 19 -4 0 4 -5 9 -11 12 -7 2 -11 -2 -8 -8z"/>
<path d="M16387 14029 c7 -7 15 -10 18 -7 3 3 -2 9 -12 12 -14 6 -15 5 -6 -5z"/>
<path d="M16930 14024 c0 -8 5 -12 10 -9 6 3 10 10 10 16 0 5 -4 9 -10 9 -5 0
-10 -7 -10 -16z"/>
<path d="M17360 13891 c0 -10 30 -24 37 -17 3 2 -5 9 -16 16 -12 6 -21 7 -21
1z"/>
<path d="M17085 13560 c3 -5 8 -10 11 -10 2 0 4 5 4 10 0 6 -5 10 -11 10 -5 0
-7 -4 -4 -10z"/>
<path d="M14695 10410 c-36 -39 -13 -110 35 -110 41 0 70 68 46 105 -20 30
-56 32 -81 5z"/>
<path d="M14441 9008 c-1 -22 18 -33 32 -19 8 8 7 11 -5 11 -9 0 -19 6 -21 13
-3 7 -6 6 -6 -5z"/>
<path d="M14547 8946 c-3 -8 -2 -18 4 -22 16 -9 22 2 11 21 -8 15 -10 16 -15
1z"/>
<path d="M14611 8851 c-7 -5 -10 -14 -7 -20 11 -17 22 -13 22 9 0 11 0 20 -1
20 0 0 -6 -4 -14 -9z"/>
<path d="M14650 9776 c-18 -23 -8 -59 22 -76 33 -18 61 -6 66 29 7 46 -59 81
-88 47z"/>
<path d="M14771 9666 c-20 -24 -9 -69 21 -83 33 -17 56 -8 65 25 5 20 0 30
-21 49 -31 27 -49 29 -65 9z"/>
<path d="M14882 9558 c-32 -32 -1 -88 48 -88 43 0 54 46 20 80 -23 23 -50 26
-68 8z"/>
<path d="M13480 8902 c-28 -22 -30 -70 -4 -89 24 -17 30 -17 55 8 25 25 22 66
-7 86 -19 12 -24 11 -44 -5z"/>
<path d="M13442 8754 c-29 -20 -30 -79 -2 -94 27 -14 58 2 66 35 13 50 -26 86
-64 59z"/>
<path d="M13395 8585 c-28 -27 -30 -37 -15 -66 22 -40 90 -13 90 35 0 21 -27
56 -44 56 -4 0 -18 -11 -31 -25z"/>
<path d="M14236 8941 c-4 -5 -2 -12 3 -15 5 -4 12 -2 15 3 4 5 2 12 -3 15 -5
4 -12 2 -15 -3z"/>
<path d="M14180 8834 c0 -8 5 -12 10 -9 6 3 10 10 10 16 0 5 -4 9 -10 9 -5 0
-10 -7 -10 -16z"/>
<path d="M14173 8721 c1 -15 4 -17 14 -9 7 5 10 14 7 19 -10 16 -23 9 -21 -10z"/>
<path d="M9001 9394 c0 -11 3 -14 6 -6 3 7 2 16 -1 19 -3 4 -6 -2 -5 -13z"/>
<path d="M8896 8715 c4 -8 10 -15 15 -15 5 0 9 7 9 15 0 8 -7 15 -15 15 -9 0
-12 -6 -9 -15z"/>
<path d="M8482 8470 c0 -14 2 -19 5 -12 2 6 2 18 0 25 -3 6 -5 1 -5 -13z"/>
<path d="M8245 8276 c3 -33 7 -61 10 -64 9 -10 5 93 -5 108 -7 10 -8 -4 -5
-44z"/>
<path d="M8845 7830 c-3 -5 -1 -10 4 -10 6 0 11 5 11 10 0 6 -2 10 -4 10 -3 0
-8 -4 -11 -10z"/>
<path d="M8482 7810 c0 -14 2 -19 5 -12 2 6 2 18 0 25 -3 6 -5 1 -5 -13z"/>
<path d="M8840 7795 c0 -9 6 -12 15 -9 8 4 12 10 9 15 -8 14 -24 10 -24 -6z"/>
<path d="M8786 7465 c3 -22 12 -82 18 -132 14 -108 28 -136 21 -42 -9 112 -19
171 -35 196 -9 14 -10 10 -4 -22z"/>
<path d="M8820 7203 c0 -10 5 -25 10 -33 7 -11 9 -6 7 17 -2 34 -17 47 -17 16z"/>
<path d="M8830 7124 c0 -8 5 -12 10 -9 6 3 10 10 10 16 0 5 -4 9 -10 9 -5 0
-10 -7 -10 -16z"/>
<path d="M12840 8323 c-40 -14 -54 -75 -21 -93 49 -26 101 1 101 53 0 37 -37
55 -80 40z"/>
<path d="M14540 8621 c0 -17 18 -21 24 -6 3 9 0 15 -9 15 -8 0 -15 -4 -15 -9z"/>
<path d="M14325 8570 c-3 -5 1 -10 9 -10 9 0 16 5 16 10 0 6 -4 10 -9 10 -6 0
-13 -4 -16 -10z"/>
<path d="M14447 8573 c-12 -12 -7 -19 12 -19 15 0 17 3 9 13 -12 15 -13 15
-21 6z"/>
<path d="M15562 7748 c-32 -32 7 -108 55 -108 28 0 53 26 53 55 0 45 -78 83
-108 53z"/>
<path d="M15046 8071 c-23 -26 -13 -59 21 -67 28 -7 50 2 67 29 27 43 -52 77
-88 38z"/>
<path d="M14885 8026 c-30 -45 16 -87 67 -62 26 13 35 50 18 72 -20 23 -67 17
-85 -10z"/>
<path d="M14740 7990 c-25 -25 -25 -35 1 -61 31 -31 89 -8 89 35 0 47 -54 62
-90 26z"/>
<path d="M18555 4761 c-3 -6 -11 -9 -16 -6 -5 4 -12 -1 -15 -9 -3 -9 -12 -16
-20 -16 -8 0 -14 -7 -14 -15 0 -8 -6 -15 -13 -15 -8 0 -24 -11 -37 -25 -13
-14 -29 -25 -37 -25 -7 0 -13 -4 -13 -10 0 -18 16 -11 46 20 16 16 35 30 42
30 7 0 24 11 37 24 14 14 33 29 42 35 10 5 15 12 11 16 -3 3 -9 1 -13 -4z"/>
<path d="M18600 4450 c-8 -5 -12 -12 -9 -15 4 -3 12 1 19 10 14 17 11 19 -10
5z"/>
<path d="M17913 3724 c-18 -9 -33 -21 -33 -26 0 -10 56 17 65 32 8 13 6 13
-32 -6z"/>
<path d="M17380 3680 c-8 -5 -12 -12 -9 -15 8 -8 39 5 39 16 0 11 -11 11 -30
-1z"/>
</g>
</svg>
